<?xml version="1.0" standalone="no"?>
<!DOCTYPE svg PUBLIC "-//W3C//DTD SVG 20010904//EN"
 "http://www.w3.org/TR/2001/REC-SVG-20010904/DTD/svg10.dtd">
<svg version="1.0" xmlns="http://www.w3.org/2000/svg"
 width="1148.000000pt" height="1148.000000pt" viewBox="0 0 1148.000000 1148.000000"
 preserveAspectRatio="xMidYMid meet">
<metadata>
Created by potrace 1.11, written by Peter Selinger 2001-2013
</metadata>
<g transform="translate(0.000000,1148.000000) scale(0.100000,-0.100000)"
fill="#000000" stroke="none">
<path d="M4936 11465 c-154 -42 -289 -149 -361 -286 -67 -129 -68 -138 -69
-686 l-1 -493 -451 0 -451 0 -60 -30 c-63 -32 -102 -73 -130 -138 -15 -34 -17
-204 -17 -1977 l-1 -1940 29 -58 c32 -66 94 -118 161 -137 29 -8 654 -10 2185
-8 l2145 3 41 22 c23 12 58 41 77 64 72 84 67 -78 67 2053 0 1296 -3 1933 -10
1958 -15 53 -68 118 -125 153 l-48 30 -464 3 -463 3 0 244 c0 135 0 247 -1
250 -54 308 -273 503 -574 510 l-60 1 -26 75 c-36 104 -73 163 -145 235 -69
67 -168 124 -259 148 -82 21 -911 22 -989 1z m944 -150 c126 -33 230 -119 281
-231 17 -36 27 -69 24 -72 -3 -4 -129 -7 -278 -7 -150 -1 -288 -5 -307 -9
-197 -42 -362 -187 -431 -376 -22 -61 -23 -81 -27 -342 l-4 -278 -239 0 -239
0 0 478 c0 518 2 546 56 637 63 108 187 194 299 207 17 2 207 4 423 5 290 1
406 -2 442 -12z m321 -487 c0 -13 1 -204 2 -425 l2 -403 -458 0 -457 0 2 238
c0 138 6 258 13 287 32 138 132 251 268 301 59 21 77 22 345 23 l282 2 1 -23z
m340 2 c114 -39 199 -112 249 -215 40 -81 46 -133 45 -390 l0 -220 -240 0
-240 0 -1 415 c0 228 1 418 3 423 8 15 125 7 184 -13z"/>
<path d="M4663 5218 c-221 -23 -407 -110 -550 -256 -194 -197 -288 -459 -287
-797 3 -447 219 -796 579 -934 28 -10 52 -19 55 -18 3 0 30 -6 60 -14 37 -9
107 -14 215 -13 143 1 169 4 248 27 202 62 364 178 478 343 51 75 132 262 144
334 6 36 18 99 22 115 13 52 11 345 -3 430 -73 449 -378 752 -787 781 -45 3
-86 7 -92 8 -5 1 -42 -1 -82 -6z m211 -222 c93 -21 197 -83 275 -165 54 -57
141 -193 141 -221 0 -9 4 -20 9 -25 9 -9 40 -120 57 -200 12 -60 11 -291 -3
-370 -62 -364 -275 -596 -571 -621 -269 -23 -504 137 -611 416 -28 71 -36 101
-56 195 -4 17 -8 86 -10 155 -4 156 10 252 62 425 15 48 76 155 121 210 81
101 189 170 309 199 58 14 219 15 277 2z"/>
<path d="M6778 5226 c-1 -2 -39 -6 -83 -9 -357 -27 -661 -269 -773 -617 -70
-217 -84 -399 -49 -645 20 -139 79 -289 162 -410 121 -177 304 -300 514 -345
118 -26 332 -21 444 9 364 97 598 378 664 796 10 65 10 332 0 412 -11 87 -51
224 -92 311 -123 260 -319 414 -610 478 -11 3 -49 7 -85 10 -36 3 -70 7 -77 9
-6 2 -13 2 -15 1z m122 -232 c120 -28 230 -98 311 -198 198 -244 244 -666 109
-1003 -100 -250 -309 -401 -555 -401 -100 0 -156 13 -252 59 -229 109 -369
371 -378 709 -12 436 182 761 497 835 71 17 196 16 268 -1z"/>
<path d="M2599 5196 c-2 -2 -35 -6 -74 -10 -66 -5 -96 -9 -155 -21 l-25 -6 0
-968 c0 -533 3 -972 7 -976 28 -28 622 -27 720 1 10 3 30 7 45 10 80 13 219
74 270 117 67 57 125 131 156 197 45 96 59 263 31 369 -41 158 -177 295 -347
351 l-38 12 78 44 c126 71 209 172 243 297 17 63 8 197 -19 266 -52 137 -186
241 -376 292 -68 19 -113 22 -296 25 -120 1 -219 1 -220 0z m306 -200 c166
-14 264 -65 319 -166 73 -133 25 -313 -104 -398 -91 -59 -173 -75 -385 -76
l-130 -1 -3 309 c-1 170 2 314 6 318 5 5 51 11 103 15 52 3 96 7 97 8 2 2 9 2
15 0 7 -2 44 -6 82 -9z m141 -871 c127 -42 228 -132 255 -228 20 -69 19 -184
-2 -246 -45 -130 -164 -219 -330 -247 -45 -8 -284 -12 -331 -6 l-38 4 0 380 0
381 183 -5 c163 -5 190 -8 263 -33z"/>
<path d="M8005 4200 l0 -990 127 0 128 0 0 378 1 377 93 107 94 107 213 -317
c117 -174 263 -391 324 -482 l111 -165 152 -3 c84 -1 152 0 152 3 0 3 -48 77
-107 163 -188 277 -267 394 -365 537 -52 77 -138 204 -191 282 -53 78 -97 146
-97 151 0 8 386 466 523 622 13 14 60 69 106 123 l83 97 -164 -1 -163 0 -300
-370 c-165 -204 -308 -381 -317 -392 -10 -12 -21 -27 -26 -32 -4 -6 -33 -44
-63 -85 l-54 -75 -3 478 -2 477 -128 0 -127 0 0 -990z"/>
<path d="M2426 2733 c-274 -58 -448 -240 -463 -483 -17 -274 132 -450 503
-593 219 -84 311 -150 362 -257 22 -46 26 -69 26 -140 0 -90 -13 -132 -61
-197 -119 -163 -458 -184 -737 -47 -39 19 -71 34 -73 34 -3 0 -33 -100 -33
-112 -1 -4 -7 -26 -15 -49 -8 -23 -15 -45 -15 -50 0 -16 130 -70 232 -96 93
-24 120 -27 278 -27 162 0 182 2 265 28 280 85 428 276 428 551 -1 172 -79
316 -228 422 -89 62 -144 91 -275 143 -211 83 -317 154 -366 242 -25 46 -29
63 -28 133 0 90 19 139 79 200 107 110 333 132 555 54 47 -17 92 -33 100 -35
12 -4 23 18 49 96 18 56 31 103 29 105 -2 2 -29 15 -58 28 -50 22 -73 29 -135
43 -117 27 -312 30 -419 7z"/>
<path d="M5465 2733 c-264 -55 -489 -231 -612 -478 -132 -265 -155 -652 -56
-943 91 -270 294 -478 541 -555 131 -41 162 -46 307 -42 152 3 177 6 275 37
221 69 406 229 513 443 46 93 69 166 103 330 10 50 13 346 4 405 -16 103 -21
125 -46 205 -103 321 -343 541 -654 599 -97 18 -286 18 -375 -1z m365 -223
c225 -77 381 -290 434 -594 13 -78 14 -309 1 -371 -27 -130 -44 -181 -92 -279
-103 -209 -272 -327 -492 -342 -381 -27 -663 304 -665 781 -1 140 7 214 34
316 71 273 245 458 475 508 73 15 234 5 305 -19z"/>
<path d="M7148 2725 c-2 -1 -34 -6 -73 -9 -122 -11 -170 -18 -180 -26 -7 -6
-10 -342 -10 -977 l0 -968 128 -3 127 -3 0 431 0 431 145 -2 c203 -2 280 -21
353 -90 74 -70 101 -134 158 -373 20 -83 38 -158 40 -166 13 -57 36 -138 43
-155 5 -11 13 -32 20 -47 l11 -28 134 0 134 0 -25 61 c-13 33 -26 68 -28 77
-11 52 -98 398 -116 461 -43 156 -133 285 -228 327 -22 10 -41 20 -41 24 0 3
26 16 57 30 56 24 139 83 177 124 142 159 172 397 74 596 -65 133 -208 230
-398 268 -75 15 -138 20 -297 20 -111 0 -203 -1 -205 -3z m419 -216 c127 -32
211 -96 254 -194 18 -40 23 -69 23 -145 1 -85 -2 -101 -28 -154 -49 -101 -130
-163 -261 -201 -45 -13 -101 -18 -234 -19 l-176 -1 -3 357 -2 357 37 6 c21 4
45 8 53 9 8 2 70 3 138 4 92 1 143 -4 199 -19z"/>
<path d="M3245 2613 l0 -108 280 -2 c154 -1 290 -2 303 -2 l22 -1 0 -880 0
-880 130 0 130 0 2 882 3 882 301 -1 302 0 -2 106 -1 106 -735 3 -735 2 0
-107z"/>
<path d="M8475 1733 l0 -988 558 -3 557 -2 0 107 0 108 -427 0 -428 0 -3 358
-2 357 385 0 c360 0 385 1 386 18 3 54 0 185 -5 189 -3 4 -176 7 -383 7 l-378
1 0 310 0 310 405 0 405 0 3 108 3 107 -538 0 -538 0 0 -987z"/>
</g>
</svg>
